<?xml version="1.0" standalone="no"?>
<!DOCTYPE svg PUBLIC "-//W3C//DTD SVG 20010904//EN"
 "http://www.w3.org/TR/2001/REC-SVG-20010904/DTD/svg10.dtd">
<svg version="1.0" xmlns="http://www.w3.org/2000/svg"
 width="200.000000pt" height="200.000000pt" viewBox="0 0 200.000000 200.000000"
 preserveAspectRatio="xMidYMid meet">
<metadata>
Created by potrace 1.11, written by Peter Selinger 2001-2013
</metadata>
<g transform="translate(0.000000,200.000000) scale(0.100000,-0.100000)"
fill="#000000" stroke="none">
<path d="M146 1468 c-14 -20 -16 -83 -16 -490 0 -455 1 -469 20 -488 41 -41
100 -12 100 48 0 32 8 45 53 90 29 29 60 52 70 52 9 0 17 5 17 10 0 15 1191
14 1227 -2 15 -6 52 -34 81 -62 44 -43 52 -56 52 -88 0 -60 59 -89 100 -48 19
19 20 33 20 490 0 457 -1 471 -20 490 -20 20 -33 20 -854 20 l-835 0 -15 -22z
m357 -155 l28 -53 -64 0 c-65 0 -65 0 -116 52 -28 28 -51 53 -51 55 0 2 39 2
88 1 l87 -3 28 -52z m191 10 c9 -26 16 -50 16 -55 0 -4 -35 -8 -77 -8 -77 0
-78 0 -97 33 -45 79 -46 77 53 77 l89 0 16 -47z m197 20 c1 -16 3 -40 5 -55
l3 -28 -79 0 -80 0 -14 33 c-34 82 -39 77 68 77 l96 0 1 -27z m195 -25 c-3
-29 -6 -54 -6 -55 0 -2 -36 -3 -80 -3 -44 0 -80 1 -80 3 0 1 -3 26 -6 55 l-6
52 92 0 92 0 -6 -52z m195 0 l-18 -53 -82 -3 -82 -3 5 28 c2 15 5 40 5 56 l1
27 94 0 95 0 -18 -52z m193 15 c-9 -21 -18 -46 -21 -55 -5 -15 -18 -18 -85
-18 l-80 0 7 33 c18 78 16 77 110 77 l85 0 -16 -37z m180 -17 l-49 -54 -67 -1
c-38 -1 -68 1 -68 4 0 3 10 27 22 55 l22 50 94 0 95 0 -49 -54z m-1322 -71 c4
-5 8 -43 8 -84 l0 -73 -37 7 c-21 4 -41 9 -45 11 -5 3 -8 53 -8 112 l0 106 37
-35 c21 -18 41 -38 45 -44z m1411 -136 c-4 -4 -25 -11 -45 -14 l-38 -7 0 74
c0 73 0 74 43 118 l42 45 3 -104 c1 -58 -1 -108 -5 -112z m-1203 51 l0 -80
-70 0 -70 0 0 80 0 80 70 0 70 0 0 -80z m180 0 l0 -80 -80 0 -80 0 0 80 0 80
80 0 80 0 0 -80z m180 0 l0 -80 -80 0 -80 0 0 80 0 80 80 0 80 0 0 -80z m180
0 l0 -80 -80 0 -80 0 0 80 0 80 80 0 80 0 0 -80z m180 0 l0 -80 -80 0 -80 0 0
80 0 80 80 0 80 0 0 -80z m180 0 l0 -80 -80 0 -80 0 0 80 0 80 80 0 80 0 0
-80z m160 0 l0 -80 -70 0 -70 0 0 80 0 80 70 0 70 0 0 -80z m-1260 -182 c0
-72 -3 -88 -15 -88 -21 0 -27 -1 -52 -11 -23 -8 -23 -8 -23 100 l0 108 45 -10
45 -10 0 -89z m1410 3 l0 -108 -45 10 -45 10 0 87 0 87 43 10 c23 6 43 11 45
12 1 0 2 -48 2 -108z m-1210 -1 l0 -80 -70 0 -70 0 0 80 0 80 70 0 70 0 0 -80z
m180 0 l0 -80 -80 0 -80 0 0 80 0 80 80 0 80 0 0 -80z m180 0 l0 -80 -80 0
-80 0 0 80 0 80 80 0 80 0 0 -80z m180 0 l0 -80 -80 0 -80 0 0 80 0 80 80 0
80 0 0 -80z m180 0 l0 -80 -80 0 -80 0 0 80 0 80 80 0 80 0 0 -80z m180 0 l0
-80 -80 0 -80 0 0 80 0 80 80 0 80 0 0 -80z m160 0 l0 -80 -70 0 -70 0 0 80 0
80 70 0 70 0 0 -80z m-1060 -180 l0 -80 -70 0 -70 0 0 80 0 80 70 0 70 0 0
-80z m180 0 l0 -80 -80 0 -80 0 0 80 0 80 80 0 80 0 0 -80z m180 0 l0 -80 -80
0 -80 0 0 80 0 80 80 0 80 0 0 -80z m180 0 l0 -80 -80 0 -80 0 0 80 0 80 80 0
80 0 0 -80z m180 0 l0 -80 -80 0 -80 0 0 80 0 80 80 0 80 0 0 -80z m180 0 l0
-80 -80 0 -80 0 0 80 0 80 80 0 80 0 0 -80z m160 0 l0 -80 -70 0 -70 0 0 80 0
80 70 0 70 0 0 -80z m-1260 -18 l0 -88 -45 -44 -45 -44 0 122 c0 134 0 134 65
140 25 2 25 1 25 -86z m1402 72 c5 -3 8 -60 8 -127 l0 -121 -45 44 -45 44 0
89 0 89 37 -7 c21 -4 41 -9 45 -11z"/>
</g>
</svg>
